HIERARCHY
ROOT Hips
{
  OFFSET 5.80788e-005 67.184 3.4734
  CHANNELS 6 Xposition Yposition Zposition Zrotation Xrotation Yrotation
  JOINT Chest
  {
    OFFSET 0 8.7983 -4.7612
    CHANNELS 6 Xposition Yposition Zposition Zrotation Xrotation Yrotation
    JOINT Chest2
    {
      OFFSET 0 8.0291 0.4195
      CHANNELS 6 Xposition Yposition Zposition Zrotation Xrotation Yrotation
      JOINT Chest3
      {
        OFFSET 0 9.9351 -2.2114
        CHANNELS 6 Xposition Yposition Zposition Zrotation Xrotation Yrotation
        JOINT Neck
        {
          OFFSET 0 22.3885 -0.4656
          CHANNELS 6 Xposition Yposition Zposition Zrotation Xrotation Yrotation
          JOINT Head
          {
            OFFSET -0.0001 12.643 3.4389
            CHANNELS 6 Xposition Yposition Zposition Zrotation Xrotation Yrotation
            End Site
            {
              OFFSET 0.0001 17.6655 0.5274
            }
          }
        }
        JOINT LeftCollar
        {
          OFFSET 2.2603 21.606 7.4023
          CHANNELS 6 Xposition Yposition Zposition Zrotation Xrotation Yrotation
          JOINT LeftShoulder
          {
            OFFSET 13.5163 -1.1332 -5.0146
            CHANNELS 6 Xposition Yposition Zposition Zrotation Xrotation Yrotation
            JOINT LeftElbow
            {
              OFFSET -0.0995 -28.05 -0.2431
              CHANNELS 6 Xposition Yposition Zposition Zrotation Xrotation Yrotation
              JOINT LeftWrist
              {
                OFFSET 0.0679 -23.3996 -0.1402
                CHANNELS 6 Xposition Yposition Zposition Zrotation Xrotation Yrotation
                JOINT LeftFinger1
                {
                  OFFSET 0.7932 -9.069 2.5189
                  CHANNELS 6 Xposition Yposition Zposition Zrotation Xrotation Yrotation
                  JOINT LeftFinger11
                  {
                    OFFSET -0.8272 -3.3923 0.5977
                    CHANNELS 6 Xposition Yposition Zposition Zrotation Xrotation Yrotation
                    JOINT LeftFinger12
                    {
                      OFFSET -0.5649 -2.3158 0.4082
                      CHANNELS 6 Xposition Yposition Zposition Zrotation Xrotation Yrotation
                      End Site
                      {
                        OFFSET -0.4919 -1.6479 0.2673
                      }
                    }
                  }
                }
                JOINT LeftFinger2
                {
                  OFFSET 0.9159 -9.2044 0.2193
                  CHANNELS 6 Xposition Yposition Zposition Zrotation Xrotation Yrotation
                  JOINT LeftFinger21
                  {
                    OFFSET 0.0117 -4.1944 -0.0248
                    CHANNELS 6 Xposition Yposition Zposition Zrotation Xrotation Yrotation
                    JOINT LeftFinger22
                    {
                      OFFSET 0.0071 -2.3249 -0.0142
                      CHANNELS 6 Xposition Yposition Zposition Zrotation Xrotation Yrotation
                      End Site
                      {
                        OFFSET -0.1475 -2.0882 0.0028
                      }
                    }
                  }
                }
                JOINT LeftFinger3
                {
                  OFFSET 0.6113 -8.7231 -2.0637
                  CHANNELS 6 Xposition Yposition Zposition Zrotation Xrotation Yrotation
                  JOINT LeftFinger31
                  {
                    OFFSET -0.1927 -3.8059 -0.2383
                    CHANNELS 6 Xposition Yposition Zposition Zrotation Xrotation Yrotation
                    JOINT LeftFinger32
                    {
                      OFFSET -0.1091 -2.1688 -0.1362
                      CHANNELS 6 Xposition Yposition Zposition Zrotation Xrotation Yrotation
                      End Site
                      {
                        OFFSET -0.2358 -1.9176 -0.0906
                      }
                    }
                  }
                }
                JOINT LeftFinger4
                {
                  OFFSET -0.6151 -8.0947 -3.5641
                  CHANNELS 6 Xposition Yposition Zposition Zrotation Xrotation Yrotation
                  JOINT LeftFinger41
                  {
                    OFFSET -0.4882 -2.341 -0.6462
                    CHANNELS 6 Xposition Yposition Zposition Zrotation Xrotation Yrotation
                    JOINT LeftFinger42
                    {
                      OFFSET -0.3575 -1.7167 -0.4742
                      CHANNELS 6 Xposition Yposition Zposition Zrotation Xrotation Yrotation
                      End Site
                      {
                        OFFSET -0.4187 -1.5237 -0.3496
                      }
                    }
                  }
                }
                JOINT LeftFinger0
                {
                  OFFSET -1.42 -1.8761 1.4223
                  CHANNELS 6 Xposition Yposition Zposition Zrotation Xrotation Yrotation
                  JOINT LeftFinger01
                  {
                    OFFSET -1.1471 -3.4929 2.6334
                    CHANNELS 6 Xposition Yposition Zposition Zrotation Xrotation Yrotation
                    JOINT LeftFinger02
                    {
                      OFFSET -0.823 -2.3 1.6571
                      CHANNELS 6 Xposition Yposition Zposition Zrotation Xrotation Yrotation
                      End Site
                      {
                        OFFSET -0.5822 -1.6914 1.1582
                      }
                    }
                  }
                }
              }
            }
          }
        }
        JOINT RightCollar
        {
          OFFSET -2.2603 21.606 7.4023
          CHANNELS 6 Xposition Yposition Zposition Zrotation Xrotation Yrotation
          JOINT RightShoulder
          {
            OFFSET -13.5187 -1.1334 -5.0155
            CHANNELS 6 Xposition Yposition Zposition Zrotation Xrotation Yrotation
            JOINT RightElbow
            {
              OFFSET 0.0994 -28.0499 -0.2431
              CHANNELS 6 Xposition Yposition Zposition Zrotation Xrotation Yrotation
              JOINT RightWrist
              {
                OFFSET -0.0679 -23.3996 -0.1402
                CHANNELS 6 Xposition Yposition Zposition Zrotation Xrotation Yrotation
                JOINT RightFinger1
                {
                  OFFSET -0.7932 -9.0691 2.5189
                  CHANNELS 6 Xposition Yposition Zposition Zrotation Xrotation Yrotation
                  JOINT RightFinger11
                  {
                    OFFSET 0.8272 -3.3923 0.5977
                    CHANNELS 6 Xposition Yposition Zposition Zrotation Xrotation Yrotation
                    JOINT RightFinger12
                    {
                      OFFSET 0.565 -2.3158 0.4082
                      CHANNELS 6 Xposition Yposition Zposition Zrotation Xrotation Yrotation
                      End Site
                      {
                        OFFSET 0.4919 -1.6479 0.2673
                      }
                    }
                  }
                }
                JOINT RightFinger2
                {
                  OFFSET -0.916 -9.2044 0.2193
                  CHANNELS 6 Xposition Yposition Zposition Zrotation Xrotation Yrotation
                  JOINT RightFinger21
                  {
                    OFFSET -0.0117 -4.1944 -0.0248
                    CHANNELS 6 Xposition Yposition Zposition Zrotation Xrotation Yrotation
                    JOINT RightFinger22
                    {
                      OFFSET -0.0071 -2.3249 -0.0142
                      CHANNELS 6 Xposition Yposition Zposition Zrotation Xrotation Yrotation
                      End Site
                      {
                        OFFSET 0.1475 -2.0882 0.0028
                      }
                    }
                  }
                }
                JOINT RightFinger3
                {
                  OFFSET -0.6113 -8.7231 -2.0637
                  CHANNELS 6 Xposition Yposition Zposition Zrotation Xrotation Yrotation
                  JOINT RightFinger31
                  {
                    OFFSET 0.1927 -3.8059 -0.2383
                    CHANNELS 6 Xposition Yposition Zposition Zrotation Xrotation Yrotation
                    JOINT RightFinger32
                    {
                      OFFSET 0.1091 -2.1688 -0.1362
                      CHANNELS 6 Xposition Yposition Zposition Zrotation Xrotation Yrotation
                      End Site
                      {
                        OFFSET 0.2358 -1.9176 -0.0906
                      }
                    }
                  }
                }
                JOINT RightFinger4
                {
                  OFFSET 0.6151 -8.0947 -3.564
                  CHANNELS 6 Xposition Yposition Zposition Zrotation Xrotation Yrotation
                  JOINT RightFinger41
                  {
                    OFFSET 0.4882 -2.341 -0.6462
                    CHANNELS 6 Xposition Yposition Zposition Zrotation Xrotation Yrotation
                    JOINT RightFinger42
                    {
                      OFFSET 0.3574 -1.7166 -0.4742
                      CHANNELS 6 Xposition Yposition Zposition Zrotation Xrotation Yrotation
                      End Site
                      {
                        OFFSET 0.4187 -1.5237 -0.3496
                      }
                    }
                  }
                }
                JOINT RightFinger0
                {
                  OFFSET 1.4199 -1.8761 1.4221
                  CHANNELS 6 Xposition Yposition Zposition Zrotation Xrotation Yrotation
                  JOINT RightFinger01
                  {
                    OFFSET 1.1472 -3.4929 2.6336
                    CHANNELS 6 Xposition Yposition Zposition Zrotation Xrotation Yrotation
                    JOINT RightFinger02
                    {
                      OFFSET 0.8229 -2.3 1.6571
                      CHANNELS 6 Xposition Yposition Zposition Zrotation Xrotation Yrotation
                      End Site
                      {
                        OFFSET 0.5822 -1.6914 1.1582
                      }
                    }
                  }
                }
              }
            }
          }
        }
      }
    }
  }
  JOINT RightHip
  {
    OFFSET -9.412 3.9771 -0.7758
    CHANNELS 6 Xposition Yposition Zposition Zrotation Xrotation Yrotation
    JOINT RightKnee
    {
      OFFSET -0.7531 -40.938 0
      CHANNELS 6 Xposition Yposition Zposition Zrotation Xrotation Yrotation
      JOINT RightAnkle
      {
        OFFSET 0 -40.1986 0
        CHANNELS 6 Xposition Yposition Zposition Zrotation Xrotation Yrotation
        JOINT RightToe
        {
          OFFSET 0 -4.4182 9.239
          CHANNELS 6 Xposition Yposition Zposition Zrotation Xrotation Yrotation
          End Site
          {
            OFFSET 0 0 6.1981
          }
        }
      }
    }
  }
  JOINT LeftHip
  {
    OFFSET 9.4119 3.9773 -0.7758
    CHANNELS 6 Xposition Yposition Zposition Zrotation Xrotation Yrotation
    JOINT LeftKnee
    {
      OFFSET 0.7532 -40.9383 0
      CHANNELS 6 Xposition Yposition Zposition Zrotation Xrotation Yrotation
      JOINT LeftAnkle
      {
        OFFSET 0 -40.1986 0
        CHANNELS 6 Xposition Yposition Zposition Zrotation Xrotation Yrotation
        JOINT LeftToe
        {
          OFFSET 0 -4.4182 9.239
          CHANNELS 6 Xposition Yposition Zposition Zrotation Xrotation Yrotation
          End Site
          {
            OFFSET 0 0 6.1981
          }
        }
      }
    }
  }
}
MOTION
Frames:	4
Frame Time:	0.0333333
5.80788e-005 67.184 3.4734 0 0 -0 0 8.7983 -4.7612 0 0 -0 0 8.0291 0.4195 0 0 -0 0 9.9351 -2.2114 0 0 -0 0 22.3885 -0.4656 0 0 -0 -0.0001 12.643 3.4389 0 0 -0 2.2603 21.606 7.4023 0 0 -12.5014 13.5163 -1.1332 -5.0146 88.1196 14.2451 10.6914 -0.0995 -28.05 -0.2431 -0.00160068 -0.00239207 0.000740045 0.0679 -23.3996 -0.1402 -8.4365e-005 7.00714e-005 -9.52055e-007 0.7932 -9.069 2.5189 9.93923e-017 -1.98785e-016 -1.59028e-015 -0.8272 -3.3923 0.5977 9.93923e-017 -5.96354e-016 -1.59028e-015 -0.5649 -2.3158 0.4082 -9.93923e-017 -5.96354e-016 -1.59028e-015 0.9159 -9.2044 0.2193 9.93923e-017 -1.98785e-016 -1.59028e-015 0.0117 -4.1944 -0.0248 -0.0128176 0.00232552 8.52707e-005 0.0071 -2.3249 -0.0142 9.93923e-017 5.96354e-016 -0 0.6113 -8.7231 -2.0637 9.93923e-017 -1.98785e-016 -1.59028e-015 -0.1927 -3.8059 -0.2383 -0.0160551 0.00299681 0.000857156 -0.1091 -2.1688 -0.1362 -2.48481e-016 0 3.18055e-015 -0.6151 -8.0947 -3.5641 9.93923e-017 -1.98785e-016 -1.59028e-015 -0.4882 -2.341 -0.6462 -0.0125865 0.0031206 0.00282719 -0.3575 -1.7167 -0.4742 0 1.98785e-016 -0 -1.42 -1.8761 1.4223 9.93923e-017 -1.98785e-016 -1.59028e-015 -1.1471 -3.4929 2.6334 9.93923e-017 -5.96354e-016 -1.59028e-015 -0.823 -2.3 1.6571 -9.93923e-017 -5.96354e-016 -1.59028e-015 -2.2603 21.606 7.4023 -0.865644 0.16582 7.03859 -13.5187 -1.1334 -5.0155 -88.0329 10.2057 -10.5567 0.0994 -28.0499 -0.2431 0.0015593 -0.00248883 -0.000788628 -0.0679 -23.3996 -0.1402 7.87605e-005 4.10553e-005 1.24965e-005 -0.7932 -9.0691 2.5189 -3.97569e-016 -7.95139e-016 3.18055e-015 0.8272 -3.3923 0.5977 -1.98785e-016 -3.97569e-016 3.18055e-015 0.565 -2.3158 0.4082 -1.98785e-016 0 3.18055e-015 -0.916 -9.2044 0.2193 -3.97569e-016 -7.95139e-016 3.18055e-015 -0.0117 -4.1944 -0.0248 0.0129473 0.00231697 -8.70038e-005 -0.0071 -2.3249 -0.0142 9.93923e-017 -7.95139e-016 1.59028e-015 -0.6113 -8.7231 -2.0637 -3.97569e-016 -7.95139e-016 3.18055e-015 0.1927 -3.8059 -0.2383 0.0163314 0.00303369 -0.000872333 0.1091 -2.1688 -0.1362 3.97569e-016 7.95139e-016 -3.18055e-015 0.6151 -8.0947 -3.564 -3.97569e-016 -7.95139e-016 3.18055e-015 0.4882 -2.341 -0.6462 0.0145763 0.00367772 -0.00326275 0.3574 -1.7166 -0.4742 9.93923e-017 -3.97569e-016 -0 1.4199 -1.8761 1.4221 -3.97569e-016 -7.95139e-016 3.18055e-015 1.1472 -3.4929 2.6336 -1.98785e-016 -3.97569e-016 3.18055e-015 0.8229 -2.3 1.6571 -1.98785e-016 0 3.18055e-015 -9.412 3.9771 -0.7758 3.42485 1.36937 -0.0640303 -0.7531 -40.938 0 0.000136572 0.69354 0.00145564 1.77636e-015 -40.1986 -1.11022e-016 -3.42573 -2.06297 -0.0607933 8.88178e-016 -4.4182 9.239 -3.19502e-024 0 -1.48106e-024 9.4119 3.9773 -0.7758 -3.42498 1.36123 0.0639712 0.7532 -40.9383 2.22045e-016 -6.769e-005 0.712612 -0.0012277 8.88179e-016 -40.1986 0 3.42582 -2.07388 0.0612819 -8.88178e-016 -4.4182 9.239 2.55305e-023 0 -2.31416e-026 
-5.98574 26.1833 -1.36949 -3.28563e-015 28.0015 180 0 8.7983 -4.7612 -0.90957 3.85659 -0.238314 8.88178e-016 8.0291 0.4195 -1.80919 7.71646 -0.416496 0 9.9351 -2.2114 -1.80919 7.71647 -0.416497 4.44089e-016 22.3885 -0.4656 1.39368e-006 -0.28153 6.47502e-007 -0.0001 12.643 3.4389 0.135756 -0.459537 0.278563 2.2603 21.606 7.4023 -25.9665 -9.11997 -38.6628 13.5163 -1.1332 -5.0146 85.7417 -7.372 33.5995 -0.0995 -28.05 -0.2431 -28.8446 -28.9245 -9.41996 0.0679 -23.3996 -0.1402 -51.2292 15.1689 9.91824 0.7932 -9.069 2.5189 9.54166e-015 0 -0 -0.8272 -3.3923 0.5977 -3.18055e-015 0 3.18055e-015 -0.5649 -2.3158 0.4082 3.18055e-015 -4.77083e-015 -0 0.9159 -9.2044 0.2193 9.54166e-015 0 -0 0.0117 -4.1944 -0.0248 -0.0127525 0.00230436 7.57489e-005 0.0071 -2.3249 -0.0142 -9.54166e-015 -3.18055e-015 -1.59028e-015 0.6113 -8.7231 -2.0637 9.54166e-015 0 -0 -0.1927 -3.8059 -0.2383 -0.0160786 0.00299067 0.0008515 -0.1091 -2.1688 -0.1362 -0 -4.77083e-015 -0 -0.6151 -8.0947 -3.5641 9.54166e-015 0 -0 -0.4882 -2.341 -0.6462 -0.0126068 0.00310887 0.00282914 -0.3575 -1.7167 -0.4742 -3.18055e-015 7.95139e-015 -0 -1.42 -1.8761 1.4223 9.54166e-015 0 -0 -1.1471 -3.4929 2.6334 -3.18055e-015 0 3.18055e-015 -0.823 -2.3 1.6571 3.18055e-015 -4.77083e-015 -0 -2.2603 21.606 7.4023 15.1537 -1.10179 35.9796 -13.5187 -1.1334 -5.0155 -85.8579 -31.2073 -30.692 0.0994 -28.0499 -0.2431 24.6299 -31.5347 8.56327 -0.0679 -23.3996 -0.1402 33.6608 -23.1939 -8.98352 -0.7932 -9.0691 2.5189 -3.18055e-015 -6.36111e-015 -3.18055e-015 0.8272 -3.3923 0.5977 -3.18055e-015 0 3.18055e-015 0.565 -2.3158 0.4082 -3.18055e-015 -3.18055e-015 -6.36111e-015 -0.916 -9.2044 0.2193 -3.18055e-015 -6.36111e-015 -3.18055e-015 -0.0117 -4.1944 -0.0248 0.0129107 0.00230121 -7.37692e-005 -0.0071 -2.3249 -0.0142 3.18055e-015 6.36111e-015 -6.36111e-015 -0.6113 -8.7231 -2.0637 -3.18055e-015 -6.36111e-015 -3.18055e-015 0.1927 -3.8059 -0.2383 0.0163799 0.00303929 -0.000869462 0.1091 -2.1688 -0.1362 -9.54166e-015 3.18055e-015 3.18055e-015 0.6151 -8.0947 -3.564 -3.18055e-015 -6.36111e-015 -3.18055e-015 0.4882 -2.341 -0.6462 0.0146061 0.0036781 -0.00325647 0.3574 -1.7166 -0.4742 3.53113e-031 -3.18055e-015 6.36111e-015 1.4199 -1.8761 1.4221 -3.18055e-015 -6.36111e-015 -3.18055e-015 1.1472 -3.4929 2.6336 -3.18055e-015 0 3.18055e-015 0.8229 -2.3 1.6571 -3.18055e-015 -3.18055e-015 -6.36111e-015 -9.412 3.9771 -0.7758 -90.751 -39.6982 -63.9053 -0.7531 -40.938 7.10543e-015 -177.523 60.2958 -139.474 0 -40.1986 0 9.04582 31.2592 -44.2592 -1.77636e-015 -4.4182 9.239 -6.01169e-006 -3.70637e-006 1.38134e-005 9.4119 3.9773 -0.7758 92.5441 -36.9872 63.6261 0.7532 -40.9383 3.55271e-015 177.714 64.6944 139.032 0 -40.1986 0 -10.1183 35.2232 41.3153 3.55271e-015 -4.4182 9.239 -3.18055e-015 1.59028e-015 4.77083e-015 
-5.98612 26.0181 -1.28857 -3.15411e-015 28.8321 180 0 8.7983 -4.7612 -0.912023 4.25469 -0.224795 0 8.0291 0.4195 -1.81479 8.5124 -0.383023 0 9.9351 -2.2114 -1.8148 8.51243 -0.383025 -1.33227e-015 22.3885 -0.4656 8.15313e-006 -0.558914 2.99681e-006 -0.0001 12.643 3.4389 0.191141 -0.926407 0.583201 2.2603 21.606 7.4023 -25.4215 -10.2222 -38.6744 13.5163 -1.1332 -5.0146 85.913 -7.61303 33.6242 -0.0995 -28.05 -0.2431 -29.4443 -29.3266 -9.67885 0.0679 -23.3996 -0.1402 -51.2153 14.8498 10.7032 0.7932 -9.069 2.5189 5.95544e-006 1.4372e-006 4.29361e-006 -0.8272 -3.3923 0.5977 -5.95544e-006 -1.4372e-006 -4.29361e-006 -0.5649 -2.3158 0.4082 5.95544e-006 1.4372e-006 4.29361e-006 0.9159 -9.2044 0.2193 5.95544e-006 1.4372e-006 4.29361e-006 0.0117 -4.1944 -0.0248 -0.0128154 0.00230986 7.87725e-005 0.0071 -2.3249 -0.0142 6.36111e-015 -1.43125e-014 6.36111e-015 0.6113 -8.7231 -2.0637 5.95544e-006 1.4372e-006 4.29361e-006 -0.1927 -3.8059 -0.2383 -0.016091 0.002993 0.000859457 -0.1091 -2.1688 -0.1362 -6.36111e-015 6.36111e-015 -4.77083e-015 -0.6151 -8.0947 -3.5641 5.95544e-006 1.4372e-006 4.29361e-006 -0.4882 -2.341 -0.6462 -0.0125687 0.00311401 0.00282294 -0.3575 -1.7167 -0.4742 7.43776e-007 -9.87407e-006 -1.50062e-006 -1.42 -1.8761 1.4223 5.95544e-006 1.4372e-006 4.29361e-006 -1.1471 -3.4929 2.6334 -5.95544e-006 -1.4372e-006 -4.29361e-006 -0.823 -2.3 1.6571 5.95544e-006 1.4372e-006 4.29361e-006 -2.2603 21.606 7.4023 15.0795 -3.17706 35.3313 -13.5187 -1.1334 -5.0155 -85.8579 -31.2073 -30.692 0.0994 -28.0499 -0.2431 26.1812 -33.1018 9.48382 -0.0679 -23.3996 -0.1402 32.8439 -22.3934 -10.7826 -0.7932 -9.0691 2.5189 3.18055e-015 6.36111e-015 3.18055e-015 0.8272 -3.3923 0.5977 -3.18055e-015 3.18055e-015 -3.18055e-015 0.565 -2.3158 0.4082 -5.29669e-031 9.54166e-015 3.18055e-015 -0.916 -9.2044 0.2193 3.18055e-015 6.36111e-015 3.18055e-015 -0.0117 -4.1944 -0.0248 0.0130035 0.00232238 -8.06267e-005 -0.0071 -2.3249 -0.0142 9.58483e-006 4.01253e-006 1.82991e-006 -0.6113 -8.7231 -2.0637 3.18055e-015 6.36111e-015 3.18055e-015 0.1927 -3.8059 -0.2383 0.0162668 0.00300859 -0.000865889 0.1091 -2.1688 -0.1362 4.14014e-006 1.61659e-005 1.69443e-006 0.6151 -8.0947 -3.564 3.18055e-015 6.36111e-015 3.18055e-015 0.4882 -2.341 -0.6462 0.0146752 0.00370547 -0.00328358 0.3574 -1.7166 -0.4742 -3.18055e-015 6.36111e-015 -0 1.4199 -1.8761 1.4221 3.18055e-015 6.36111e-015 3.18055e-015 1.1472 -3.4929 2.6336 -3.18055e-015 3.18055e-015 -3.18055e-015 0.8229 -2.3 1.6571 -5.29669e-031 9.54166e-015 3.18055e-015 -9.412 3.9771 -0.7758 -91.8387 -39.6728 -64.5472 -0.7531 -40.938 3.55271e-015 -177.474 59.6681 -139.563 0 -40.1986 -3.55271e-015 8.66787 32.0252 -44.142 1.77636e-015 -4.4182 9.239 -3.82377e-006 -4.7232e-006 1.26239e-005 9.4119 3.9773 -0.7758 93.2896 -37.3798 64.1542 0.7532 -40.9383 -3.55271e-015 177.691 64.2795 139.084 -7.10543e-015 -40.1986 0 -10.3122 36.2256 41.6492 3.55271e-015 -4.4182 9.239 -3.18055e-015 0 6.36111e-015 
-5.98655 25.8546 -1.20621 -3.02026e-015 29.6642 180 0 8.7983 -4.7612 -0.913978 4.65334 -0.211251 -8.88178e-016 8.0291 0.4195 -1.81973 9.30949 -0.349455 0 9.9351 -2.2114 -1.81974 9.30951 -0.349456 8.88178e-016 22.3885 -0.4656 -1.21043e-005 -0.836325 -2.76587e-006 -0.0001 12.643 3.4389 0.249116 -1.39377 0.888859 2.2603 21.606 7.4023 -24.8738 -11.3264 -38.6753 13.5163 -1.1332 -5.0146 85.8644 -7.98085 33.622 -0.0995 -28.05 -0.2431 -29.8019 -29.7391 -9.95361 0.0679 -23.3996 -0.1402 -51.1968 14.5307 11.4877 0.7932 -9.069 2.5189 -7.44873e-006 4.48708e-006 -1.28374e-006 -0.8272 -3.3923 0.5977 -8.82781e-032 3.18055e-015 1.59028e-015 -0.5649 -2.3158 0.4082 -3.18055e-015 3.18055e-015 3.18055e-015 0.9159 -9.2044 0.2193 -7.44873e-006 4.48708e-006 -1.28374e-006 0.0117 -4.1944 -0.0248 -0.01284 0.00232301 7.76752e-005 0.0071 -2.3249 -0.0142 -7.40793e-007 -1.38962e-006 1.50221e-006 0.6113 -8.7231 -2.0637 -7.44873e-006 4.48708e-006 -1.28374e-006 -0.1927 -3.8059 -0.2383 -0.0160582 0.00299937 0.000858461 -0.1091 -2.1688 -0.1362 -2.20695e-031 7.95139e-015 1.59028e-015 -0.6151 -8.0947 -3.5641 -7.44873e-006 4.48708e-006 -1.28374e-006 -0.4882 -2.341 -0.6462 -0.0125636 0.00310759 0.00281874 -0.3575 -1.7167 -0.4742 3.18055e-015 0 -0 -1.42 -1.8761 1.4223 -7.44873e-006 4.48708e-006 -1.28374e-006 -1.1471 -3.4929 2.6334 -8.82781e-032 3.18055e-015 1.59028e-015 -0.823 -2.3 1.6571 -3.18055e-015 3.18055e-015 3.18055e-015 -2.2603 21.606 7.4023 14.9808 -5.26357 34.6746 -13.5187 -1.1334 -5.0155 -85.8579 -31.2073 -30.692 0.0994 -28.0499 -0.2431 27.8001 -34.6548 10.4778 -0.0679 -23.3996 -0.1402 32.0559 -21.5664 -12.5663 -0.7932 -9.0691 2.5189 -3.25655e-006 -8.76506e-006 6.65783e-006 0.8272 -3.3923 0.5977 5.57611e-006 8.45805e-006 5.01788e-006 0.565 -2.3158 0.4082 -2.01938e-006 -3.33849e-006 1.60708e-006 -0.916 -9.2044 0.2193 -3.25655e-006 -8.76506e-006 6.65783e-006 -0.0117 -4.1944 -0.0248 0.013052 0.00234747 -8.23743e-005 -0.0071 -2.3249 -0.0142 -0 -7.73562e-006 -0 -0.6113 -8.7231 -2.0637 -3.25655e-006 -8.76506e-006 6.65783e-006 0.1927 -3.8059 -0.2383 0.0164151 0.00304351 -0.000875567 0.1091 -2.1688 -0.1362 -6.36111e-015 -6.36111e-015 -3.18055e-015 0.6151 -8.0947 -3.564 -3.25655e-006 -8.76506e-006 6.65783e-006 0.4882 -2.341 -0.6462 0.014604 0.00369105 -0.0032712 0.3574 -1.7166 -0.4742 1.23675e-005 5.02573e-006 2.91238e-006 1.4199 -1.8761 1.4221 -3.25655e-006 -8.76506e-006 6.65783e-006 1.1472 -3.4929 2.6336 5.57611e-006 8.45805e-006 5.01788e-006 0.8229 -2.3 1.6571 -2.01938e-006 -3.33849e-006 1.60708e-006 -9.412 3.9771 -0.7758 -92.9268 -39.6382 -65.1887 -0.7531 -40.938 -3.55271e-015 -177.427 59.0402 -139.65 0 -40.1986 0 8.28383 32.7916 -44.0171 1.77636e-015 -4.4182 9.239 -3.3277e-006 -2.09164e-006 1.19641e-007 9.4119 3.9773 -0.7758 94.0456 -37.7677 64.6929 0.7532 -40.9383 3.55271e-015 177.668 63.8643 139.135 0 -40.1986 0 -10.5166 37.2294 41.9925 -7.10543e-015 -4.4182 9.239 6.36111e-015 -4.77083e-015 9.54166e-015 
